<svg width="20" height="20" viewBox="0 0 15 16" fill="#C4C4C4" xmlns="http://www.w3.org/2000/svg">
<path d="M6.75 12.5H8.25V11H6.75V12.5ZM7.5 0.5C3.36 0.5 0 3.86 0 8C0 12.14 3.36 15.5 7.5 15.5C11.64 15.5 15 12.14 15 8C15 3.86 11.64 0.5 7.5 0.5ZM7.5 14C4.1925 14 1.5 11.3075 1.5 8C1.5 4.6925 4.1925 2 7.5 2C10.8075 2 13.5 4.6925 13.5 8C13.5 11.3075 10.8075 14 7.5 14ZM7.5 3.5C5.8425 3.5 4.5 4.8425 4.5 6.5H6C6 5.675 6.675 5 7.5 5C8.325 5 9 5.675 9 6.5C9 8 6.75 7.8125 6.75 10.25H8.25C8.25 8.5625 10.5 8.375 10.5 6.5C10.5 4.8425 9.1575 3.5 7.5 3.5Z" fill="#323232"/>
</svg>
