<?xml version="1.0" encoding="utf-8"?>
<!-- Generator: Adobe Illustrator 25.4.1, SVG Export Plug-In . SVG Version: 6.00 Build 0)  -->
<svg version="1.1" id="Layer_1" xmlns="http://www.w3.org/2000/svg" xmlns:xlink="http://www.w3.org/1999/xlink" x="0px" y="0px"
	 viewBox="0 0 13 13" style="enable-background:new 0 0 13 13;" xml:space="preserve">
<path id="Path_2120" d="M12.9,7.3V5.7l-1.5-0.5c-0.1-0.5-0.3-1-0.6-1.4l0.7-1.4l-1.1-1.1L9.1,2.1C8.7,1.9,8.2,1.7,7.7,1.6L7.3,0.1
	H5.7L5.2,1.6c-0.5,0.1-1,0.3-1.4,0.6L2.5,1.4L1.4,2.5l0.7,1.4C1.9,4.3,1.7,4.8,1.5,5.3L0.1,5.8v1.5l1.5,0.5c0.1,0.5,0.3,1,0.6,1.4
	l-0.7,1.3l1.1,1.1l1.4-0.7c0.4,0.3,0.9,0.5,1.4,0.6l0.5,1.5h1.5l0.5-1.5c0.5-0.1,1-0.3,1.4-0.6l1.4,0.7l1.1-1.1l-0.7-1.4
	c0.3-0.4,0.5-0.9,0.6-1.4L12.9,7.3z M6.5,9.9c-1.9,0-3.4-1.5-3.4-3.4s1.5-3.4,3.4-3.4c1.9,0,3.4,1.5,3.4,3.4c0,0,0,0,0,0
	C9.9,8.4,8.4,9.9,6.5,9.9L6.5,9.9z"/>
</svg>
