<svg width="20" height="20" viewBox="0 0 15 14" fill="#C4C4C4" xmlns="http://www.w3.org/2000/svg">
<path d="M14.25 11.5V12.25C14.25 13.075 13.575 13.75 12.75 13.75H2.25C1.4175 13.75 0.75 13.075 0.75 12.25V1.75C0.75 0.925 1.4175 0.25 2.25 0.25H12.75C13.575 0.25 14.25 0.925 14.25 1.75V2.5H7.5C6.6675 2.5 6 3.175 6 4V10C6 10.825 6.6675 11.5 7.5 11.5H14.25ZM7.5 10H15V4H7.5V10ZM10.5 8.125C9.8775 8.125 9.375 7.6225 9.375 7C9.375 6.3775 9.8775 5.875 10.5 5.875C11.1225 5.875 11.625 6.3775 11.625 7C11.625 7.6225 11.1225 8.125 10.5 8.125Z" fill="#323232"/>
</svg>
